<?xml version="1.0" encoding="UTF-8" standalone="no"?>
<!DOCTYPE svg PUBLIC "-//W3C//DTD SVG 1.1//EN" "http://www.w3.org/Graphics/SVG/1.1/DTD/svg11.dtd">
<svg width="100%" height="100%" viewBox="0 0 110 115" version="1.1" xmlns="http://www.w3.org/2000/svg" xmlns:xlink="http://www.w3.org/1999/xlink" xml:space="preserve" xmlns:serif="http://www.serif.com/" style="fill-rule:evenodd;clip-rule:evenodd;stroke-linejoin:round;stroke-miterlimit:2;">
    <g transform="matrix(1,0,0,1,-1529.47,-1322.05)">
        <path id="Comb3" d="M1529.47,1437.05L1529.47,1342.05L1579.47,1342.05L1579.47,1332.05L1529.47,1332.05L1529.47,1322.05L1639.47,1322.05L1639.47,1417.05L1589.47,1417.05L1589.47,1427.05L1639.47,1427.05L1639.47,1437.05L1529.47,1437.05ZM1539.47,1427.05L1539.47,1417.05L1579.47,1417.05L1579.47,1427.05L1539.47,1427.05ZM1579.47,1407.05L1579.47,1401.56C1579.2,1397.11 1578.57,1393.65 1577.6,1391.18C1576.2,1387.61 1573.75,1385.05 1570.8,1382.76C1567.9,1380.51 1564.28,1379.05 1559.26,1379.05C1554.68,1379.05 1551.28,1380.42 1548.15,1382.63C1545.09,1384.79 1542.78,1387.37 1541.46,1390.71C1540.14,1394.04 1539.47,1399.49 1539.47,1407.05L1579.47,1407.05ZM1589.47,1407.05L1589.47,1383.58L1591.15,1385.08C1596.03,1389.06 1602.22,1391.05 1609.72,1391.05C1617.18,1391.05 1623.37,1389.01 1628.3,1384.92L1629.47,1383.87L1629.47,1407.05L1589.47,1407.05ZM1589.47,1352.05L1589.47,1357.54C1589.74,1361.99 1590.38,1365.44 1591.34,1367.92C1592.75,1371.49 1595.19,1374.05 1598.15,1376.34C1601.04,1378.59 1604.66,1380.05 1609.68,1380.05C1614.26,1380.05 1617.66,1378.68 1620.8,1376.47C1623.85,1374.31 1626.16,1371.73 1627.48,1368.39C1628.8,1365.06 1629.47,1359.61 1629.47,1352.05L1589.47,1352.05ZM1539.47,1352.05L1579.47,1352.05L1579.47,1375.52L1577.79,1374.02C1572.92,1370.04 1566.73,1368.05 1559.22,1368.05C1551.77,1368.05 1545.58,1370.09 1540.65,1374.18L1539.47,1375.23L1539.47,1352.05ZM1629.47,1332.05L1629.47,1342.05L1589.47,1342.05C1589.47,1342.05 1589.47,1332.05 1589.47,1332.05L1629.47,1332.05Z"/>
    </g>
</svg>
