<?xml version="1.0" encoding="UTF-8" standalone="no"?>
<!DOCTYPE svg PUBLIC "-//W3C//DTD SVG 1.1//EN" "http://www.w3.org/Graphics/SVG/1.1/DTD/svg11.dtd">
<svg width="100%" height="100%" viewBox="0 0 160 160" version="1.1" xmlns="http://www.w3.org/2000/svg" xmlns:xlink="http://www.w3.org/1999/xlink" xml:space="preserve" xmlns:serif="http://www.serif.com/" style="fill-rule:evenodd;clip-rule:evenodd;stroke-linejoin:round;stroke-miterlimit:2;">
    <g transform="matrix(1,0,0,1,-1315.45,-1300.45)">
        <path id="Comb2" d="M1315.45,1381.77L1382.63,1314.59L1417.98,1349.95L1425.05,1342.88L1389.7,1307.52L1396.77,1300.45L1474.55,1378.23L1407.37,1445.41L1372.02,1410.05L1364.95,1417.12L1400.3,1452.48L1393.23,1459.55L1315.45,1381.77ZM1379.09,1402.98L1395.69,1386.38L1395.82,1388.63C1396.45,1394.89 1399.42,1400.68 1404.72,1405.99C1410,1411.26 1415.82,1414.19 1422.19,1414.79L1423.77,1414.87L1407.37,1431.27L1379.09,1402.98ZM1329.59,1381.77L1336.66,1374.7L1364.95,1402.98L1357.88,1410.05L1329.59,1381.77ZM1417.98,1364.09L1414.1,1367.97C1411.15,1371.31 1409.15,1374.2 1408.09,1376.63C1406.55,1380.15 1406.47,1383.69 1406.94,1387.4C1407.4,1391.04 1408.92,1394.63 1412.48,1398.18C1415.71,1401.41 1419.08,1402.86 1422.86,1403.51C1426.55,1404.14 1430.01,1403.95 1433.31,1402.52C1436.6,1401.1 1440.92,1397.72 1446.27,1392.37L1417.98,1364.09ZM1372.02,1395.91L1375.9,1392.03C1378.85,1388.69 1380.85,1385.8 1381.91,1383.37C1383.45,1379.85 1383.53,1376.31 1383.06,1372.6C1382.6,1368.96 1381.08,1365.37 1377.53,1361.82C1374.29,1358.59 1370.92,1357.14 1367.14,1356.49C1363.45,1355.86 1360,1356.05 1356.69,1357.48C1353.4,1358.9 1349.08,1362.28 1343.74,1367.63L1372.02,1395.91ZM1460.41,1378.23L1453.34,1385.3L1425.05,1357.02C1425.05,1357.02 1432.12,1349.95 1432.12,1349.95L1460.41,1378.23ZM1382.63,1328.74L1410.91,1357.02L1394.31,1373.62L1394.18,1371.37C1393.55,1365.11 1390.58,1359.32 1385.28,1354.01C1380.01,1348.74 1374.18,1345.81 1367.81,1345.21L1366.23,1345.13L1382.63,1328.74Z"/>
    </g>
</svg>
