<?xml version="1.0" encoding="UTF-8" standalone="no"?>
<!DOCTYPE svg PUBLIC "-//W3C//DTD SVG 1.1//EN" "http://www.w3.org/Graphics/SVG/1.1/DTD/svg11.dtd">
<svg width="100%" height="100%" viewBox="0 0 103 138" version="1.1" xmlns="http://www.w3.org/2000/svg" xmlns:xlink="http://www.w3.org/1999/xlink" xml:space="preserve" xmlns:serif="http://www.serif.com/" style="fill-rule:evenodd;clip-rule:evenodd;stroke-linejoin:round;stroke-miterlimit:2;">
    <g transform="matrix(1,0,0,1,-910,-1310)">
        <path id="Angle4" d="M987.782,1447.89L910,1370.1L970.104,1310L977.175,1317.07L960.783,1333.46L962.361,1333.55C968.733,1334.14 974.555,1337.08 979.826,1342.35C985.133,1347.66 988.102,1353.44 988.734,1359.71L988.863,1361.95L1005.46,1345.36L1012.53,1352.43L973.64,1391.32L1009,1426.67L1001.92,1433.74L966.569,1398.39L959.497,1405.46L994.853,1440.82L987.782,1447.89ZM952.426,1398.39L959.497,1391.32L931.213,1363.03L924.142,1370.1C924.142,1370.1 952.426,1398.39 952.426,1398.39ZM966.569,1384.25L970.449,1380.37C973.404,1377.03 975.402,1374.13 976.464,1371.7C978,1368.18 978.078,1364.65 977.611,1360.94C977.153,1357.3 975.63,1353.7 972.075,1350.15C968.837,1346.92 965.467,1345.48 961.686,1344.83C958,1344.19 954.545,1344.38 951.244,1345.81C947.955,1347.24 938.284,1355.96 938.284,1355.96L966.569,1384.25Z"/>
    </g>
</svg>
