<?xml version="1.0" encoding="UTF-8" standalone="no"?>
<!DOCTYPE svg PUBLIC "-//W3C//DTD SVG 1.1//EN" "http://www.w3.org/Graphics/SVG/1.1/DTD/svg11.dtd">
<svg width="100%" height="100%" viewBox="0 0 103 138" version="1.1" xmlns="http://www.w3.org/2000/svg" xmlns:xlink="http://www.w3.org/1999/xlink" xml:space="preserve" xmlns:serif="http://www.serif.com/" style="fill-rule:evenodd;clip-rule:evenodd;stroke-linejoin:round;stroke-miterlimit:2;">
    <g transform="matrix(1,0,0,1,-735.884,-1310.61)">
        <path id="fortierpmLogo" d="M760.633,1310.61L838.414,1388.39L778.31,1448.49L771.239,1441.42L787.631,1425.03L786.054,1424.94C779.681,1424.35 773.86,1421.41 768.589,1416.14C763.282,1410.84 760.312,1405.05 759.68,1398.79L759.552,1396.54L742.955,1413.14L735.884,1406.07L774.775,1367.17L739.419,1331.82L746.49,1324.75L781.846,1360.1L788.917,1353.03L753.562,1317.68L760.633,1310.61ZM781.846,1374.25L777.965,1378.13C775.01,1381.46 773.013,1384.36 771.951,1386.79C770.414,1390.31 770.336,1393.85 770.804,1397.56C771.262,1401.19 772.785,1404.79 776.34,1408.34C779.577,1411.57 782.947,1413.01 786.728,1413.66C790.415,1414.3 793.869,1414.11 797.171,1412.68C800.46,1411.26 810.13,1402.53 810.13,1402.53L781.846,1374.25ZM795.988,1360.1L788.917,1367.17L817.201,1395.46L824.272,1388.39C824.272,1388.39 795.988,1360.1 795.988,1360.1Z"/>
    </g>
</svg>
